<svg width="57" height="50" viewBox="0 0 57 50" fill="none" xmlns="http://www.w3.org/2000/svg"><path fill-rule="evenodd" clip-rule="evenodd" d="M12.195 6.098a1.22 1.22 0 1 1 2.44.001 1.22 1.22 0 0 1-2.44 0zm-3.658 0a1.22 1.22 0 1 1 2.44.001 1.22 1.22 0 0 1-2.44 0zm-2.44 1.22a1.22 1.22 0 1 1 .001-2.44 1.22 1.22 0 0 1 0 2.44zM46.343 21.95a1.22 1.22 0 0 1-1.22-1.22 1.22 1.22 0 0 1 2.44 0 1.22 1.22 0 0 1-1.22 1.22zm0-4.879a3.663 3.663 0 0 0-3.659 3.659c0 .572.143 1.106.38 1.588-.047.042-.1.07-.136.12l-6.392 8.522-5.11-6.133a1.219 1.219 0 0 0-1.952.104l-6.49 9.739-5.048-5.046a1.217 1.217 0 0 0-1.787.07L8.83 38.23a1.218 1.218 0 1 0 1.85 1.585l6.462-7.535 5.166 5.166a1.22 1.22 0 0 0 1.876-.186l6.411-9.617 5.053 6.064a1.22 1.22 0 0 0 1.912-.05l7.223-9.63c.473.225.998.361 1.558.361A3.663 3.663 0 0 0 50 20.731a3.663 3.663 0 0 0-3.658-3.659zm7.316 29.272c0 .667-.55 1.217-1.219 1.217H3.659c-.675 0-1.22-.544-1.22-1.217V12.195h51.219v34.149zM2.44 3.657c0-.668.551-1.218 1.22-1.218h48.78c.674 0 1.22.544 1.22 1.218v6.1H2.438v-6.1zM52.44 0H3.658C3.23 0 2.823.088 2.44.226 1.026.73 0 2.067 0 3.656v42.688A3.656 3.656 0 0 0 3.659 50h48.78a3.664 3.664 0 0 0 3.659-3.656V3.656c0-2.02-1.64-3.656-3.659-3.656z" fill="#8739E5"/></svg>