<svg width="37" height="30" viewBox="0 0 37 30" fill="none" xmlns="http://www.w3.org/2000/svg"><path fill-rule="evenodd" clip-rule="evenodd" d="M19.014 30L0 .028h28.091l-9.454 16.844c-.146-.094-.197-.246-.28-.37-.919-1.38-1.83-2.766-2.757-4.141-.122-.182-.118-.303-.009-.485 1.487-2.477 2.964-4.96 4.444-7.44.039-.066.075-.133.127-.225H8.786l10 15.98c.116-.036.13-.142.173-.22C22.607 13.408 26.255 6.844 29.896.276c.114-.205.239-.277.473-.276 1.913.01 3.825.006 5.737.006h.335L19.014 30z" fill="#00f"/></svg>