<svg xmlns="http://www.w3.org/2000/svg" width="9" height="17" viewBox="0 0 9 17"><path fill="#BFBFBF" fill-rule="evenodd" d="M.258 8.833h1.754v7.22c0 .143.115.258.258.258h2.974a.258.258 0 0 0 .258-.258V8.867h2.016a.258.258 0 0 0 .256-.229l.307-2.658a.258.258 0 0 0-.257-.288H5.502V4.026c0-.502.27-.757.804-.757h1.518a.258.258 0 0 0 .258-.258V.571a.258.258 0 0 0-.258-.258H5.732a2.06 2.06 0 0 0-.096-.002c-.363 0-1.625.072-2.622.989-1.105 1.016-.951 2.233-.915 2.444v1.948H.26a.258.258 0 0 0-.26.259v2.624c0 .142.116.258.258.258"/></svg>