<svg xmlns="http://www.w3.org/2000/svg" width="53" height="50" viewBox="0 0 53 50"><path fill="#8739E5" fill-rule="evenodd" d="M50 46.241a1.26 1.26 0 0 1-1.255 1.259H3.755c-.695 0-1.255-.56-1.255-1.259V12.5H50v33.741zM3.755 2.5h44.99c.691 0 1.249.556 1.254 1.25l.001.009V10H2.5V3.759l.001-.009A1.26 1.26 0 0 1 3.755 2.5zm48.744 1.25l.001.009V46.24A3.76 3.76 0 0 1 48.745 50H3.755A3.754 3.754 0 0 1 0 46.241V3.76l.001-.009A3.751 3.751 0 0 1 2.5.231 3.701 3.701 0 0 1 3.755 0h44.99a3.753 3.753 0 0 1 3.754 3.75zM6.25 7.5a1.249 1.249 0 1 0 0-2.5 1.249 1.249 0 1 0 0 2.5zm3.75 0A1.249 1.249 0 1 0 10 5a1.249 1.249 0 1 0 0 2.5zm3.75 0a1.249 1.249 0 1 0 0-2.5 1.249 1.249 0 1 0 0 2.5zm23.384 14.116c-.055-.054-.124-.08-.184-.122-.488-.337-1.15-.313-1.584.122a1.249 1.249 0 0 0 0 1.768l1.584 1.583 3.712 3.713-3.712 3.715-1.584 1.583a1.249 1.249 0 0 0 0 1.768c.434.432 1.096.46 1.584.121.06-.041.129-.066.184-.121l6.181-6.183a1.249 1.249 0 0 0 0-1.767l-6.181-6.18zm-7.23-4.03c-.402-.158-.823-.073-1.154.155a1.216 1.216 0 0 0-.465.553l-.178.456-4.218 10.778-3.803 9.72a1.251 1.251 0 0 0 2.329.911l1.473-3.77 4.862-12.424 1.862-4.76c.059-.15.08-.303.08-.455 0-.5-.294-.972-.787-1.165zm-12.631 5.798a1.249 1.249 0 1 0-1.768-1.768l-1.755 1.755-4.426 4.425a1.249 1.249 0 0 0 0 1.768l4.427 4.426 1.755 1.756a1.25 1.25 0 0 0 1.767-1.768l-3.522-3.523-1.775-1.775 1.774-1.774 3.523-3.522z"/></svg>