<svg width="22" height="14" viewBox="0 0 22 14" fill="none" xmlns="http://www.w3.org/2000/svg">
<path fill-rule="evenodd" clip-rule="evenodd" d="M0.00415608 6.60846C-0.128188 3.20501 2.91936 0.0608444 6.4015 0.0201871C8.17593 -0.127463 9.90186 0.546949 11.2464 1.64612C10.6952 2.23815 10.1341 2.82483 9.53619 3.37228C8.35238 2.67005 6.92978 2.13366 5.54692 2.61013C3.31822 3.22998 1.96817 5.80459 2.79395 7.93731C3.47608 10.1663 6.24619 11.3882 8.41801 10.452C9.54166 10.0593 10.2821 9.04505 10.6084 7.95408C9.31962 7.92911 8.03082 7.94445 6.74311 7.90949C6.7391 7.16019 6.73619 6.41338 6.7391 5.66371C8.88796 5.65979 11.0401 5.65408 13.1919 5.67227C13.3227 7.5097 13.0464 9.47552 11.8247 10.9509C10.1542 13.0559 7.06504 13.6732 4.5516 12.8469C1.88541 11.9902 -0.0541773 9.36282 0.00415608 6.60846Z" transform="translate(0.223877 0.734375)" fill="#BFBFBF"/>
<path fill-rule="evenodd" clip-rule="evenodd" d="M1.9425 0H3.85948C3.8624 0.628406 3.86786 1.25788 3.87224 1.88486C4.51318 1.89057 5.15703 1.89449 5.7976 1.89734V3.77543C5.15703 3.77828 4.51318 3.78078 3.87224 3.78506C3.86531 4.41489 3.8624 5.04187 3.85948 5.67134C3.21854 5.66849 2.57651 5.67134 1.93958 5.67134C1.93266 5.04187 1.93266 4.41489 1.92682 3.78791C1.28589 3.78078 0.640938 3.77828 0 3.77543V1.89734C0.640938 1.89306 1.28187 1.89057 1.92682 1.88486C1.92974 1.25788 1.93557 0.628406 1.9425 0Z" transform="translate(15.66 4.50586)" fill="#BFBFBF"/>
</svg>

