<svg xmlns="http://www.w3.org/2000/svg" width="18" height="14" viewBox="0 0 18 14"><path fill="#BFBFBF" fill-rule="evenodd" d="M11.956 0c-1.986.03-3.55 1.765-3.55 3.774v.487C4.857 3.62 3.113 2.648 1.188.609c-1.143 2.252.12 4.139 1.504 5.174-.933 0-1.715-.122-2.316-.67-.06-.03-.12 0-.09.06.51 1.888 2.255 3.257 3.609 3.653-1.234 0-2.046.183-2.918-.365-.06-.03-.12 0-.09.06.662 1.857 1.985 2.436 3.91 2.436-.963.73-2.256 1.46-4.692 1.521-.09 0-.15.122-.06.183C.947 13.42 3.173 14 6.3 14c5.143 0 9.324-4.626 9.324-10.348v-.304c.812-.305 1.263-1.035 1.504-1.765 0-.03-.03-.061-.06-.061l-1.715.608c-.03 0-.06-.06-.03-.09.722-.58 1.264-1.31 1.504-2.01 0 0-.03-.03-.06-.03-.812.335-1.594.67-2.196.852-.09.03-.21.03-.3-.03C13.88.609 12.708 0 11.956 0"/></svg>