<svg width="263" height="30" viewBox="0 0 263 30" fill="none" xmlns="http://www.w3.org/2000/svg">
<path d="M13.975 9.25V7.075C13.975 3.95 12.475 2.35 8.425 2.35H1.625V19H5.375V13.95H8.225C12.275 13.95 13.975 12.375 13.975 9.25ZM10.225 8.875C10.225 10.075 9.875 10.7 8.225 10.7H5.375V5.675H8.225C9.8 5.675 10.225 6.225 10.225 7.425V8.875ZM25.9246 2.35H20.9246L15.8496 19H19.7496L20.6496 15.75H26.2246L27.1246 19H31.0246L25.9246 2.35ZM23.4246 5.65L25.3246 12.625H21.4996L23.4246 5.65ZM45.3734 18.45V10.625H41.8484V15.725C40.8734 15.85 40.3734 15.875 39.6234 15.875C37.7484 15.875 37.2734 14.8 37.2734 13.5V7.775C37.2734 6.475 37.7484 5.5 39.6234 5.5C40.8234 5.5 43.0484 5.675 44.4984 5.9L44.9484 2.625C43.5234 2.35 41.5484 2.1 39.6234 2.1C35.5734 2.1 33.5234 4.125 33.5234 7.2V14.15C33.5234 17.175 35.5734 19.25 39.6234 19.25C41.5484 19.25 43.5484 18.975 45.3734 18.45ZM59.973 19V15.675H53.248V12.05H59.448V8.725H53.248V5.675H59.973V2.35H49.498V19H59.973ZM76.9775 2.35H73.1275L69.6025 15.6L66.0775 2.35H62.2275L66.9275 19H72.2775L76.9775 2.35ZM88.2986 2.35H83.2986L78.2236 19H82.1236L83.0236 15.75H88.5986L89.4986 19H93.3986L88.2986 2.35ZM85.7986 5.65L87.6986 12.625H83.8736L85.7986 5.65ZM102.797 16.85H106.147L109.047 9.75L109.297 19H112.922L112.222 2.35H108.472L104.472 12.95L100.472 2.35H96.7225L96.0225 19H99.6475L99.8975 9.75L102.797 16.85ZM129.276 9.25V7.075C129.276 3.95 127.776 2.35 123.726 2.35H116.926V19H120.676V13.95H123.526C127.576 13.95 129.276 12.375 129.276 9.25ZM125.526 8.875C125.526 10.075 125.176 10.7 123.526 10.7H120.676V5.675H123.526C125.101 5.675 125.526 6.225 125.526 7.425V8.875Z" transform="translate(40 1)" fill="white"/>
<path d="M149.749 14.325C149.749 11.05 149.524 10.175 145.024 9.1C142.399 8.475 142.324 8.45 142.324 6.85C142.324 5.625 142.699 5.325 144.374 5.325C145.874 5.325 147.099 5.475 148.999 5.8L149.374 2.65C147.524 2.25 145.774 2.1 144.324 2.1C139.749 2.1 138.574 3.425 138.574 6.75C138.574 10.35 139.174 11.15 143.199 12.025C145.924 12.625 145.999 12.8 145.999 14.3C145.999 15.7 145.624 16.075 143.699 16.075C141.974 16.075 140.424 15.75 138.899 15.275L138.274 18.175C139.699 18.825 141.724 19.25 143.649 19.25C148.674 19.25 149.749 17.625 149.749 14.325ZM164.748 5.675V2.35H152.048V5.675H156.523V19H160.273V5.675H164.748ZM176.354 2.35V13.8C176.354 15.15 175.704 15.925 173.829 15.925C171.954 15.925 171.304 15.15 171.304 13.8V2.35H167.554V14.15C167.554 16.675 169.129 19.25 173.829 19.25C178.529 19.25 180.104 16.675 180.104 14.15V2.35H176.354ZM196.305 14.675V6.675C196.305 4.425 194.78 2.35 190.68 2.35H184.23V19H190.68C194.78 19 196.305 16.9 196.305 14.675ZM192.555 13.65C192.555 14.95 192.105 15.675 190.23 15.675H187.98V5.675H190.23C192.105 5.675 192.555 6.4 192.555 7.7V13.65ZM204.047 19V2.35H200.297V19H204.047ZM220.948 7.2C220.948 4.675 219.198 2.1 214.498 2.1C209.798 2.1 208.048 4.675 208.048 7.2V14.15C208.048 16.675 209.798 19.25 214.498 19.25C219.198 19.25 220.948 16.675 220.948 14.15V7.2ZM217.198 13.825C217.198 15.125 216.373 15.925 214.498 15.925C212.623 15.925 211.798 15.125 211.798 13.825V7.525C211.798 6.225 212.623 5.425 214.498 5.425C216.373 5.425 217.198 6.225 217.198 7.525V13.825Z" transform="translate(40 1)" fill="#CEDAFD"/>
<path fill-rule="evenodd" clip-rule="evenodd" d="M19.0138 30C12.6591 19.9829 6.33986 10.0218 0 0.0279247C9.37522 0.0279247 18.7128 0.0279247 28.091 0.0279247C24.9355 5.6499 21.7882 11.2576 18.6371 16.8718C18.491 16.7781 18.44 16.6264 18.3568 16.5014C17.438 15.1212 16.5264 13.7359 15.6003 12.3606C15.4777 12.1786 15.4816 12.0584 15.5911 11.8757C17.0776 9.39878 18.5553 6.91652 20.035 4.43571C20.0739 4.37043 20.11 4.30344 20.1617 4.21122C16.3706 4.21122 12.6035 4.21122 8.78596 4.21122C12.1261 9.54901 15.4554 14.8688 18.7864 20.1911C18.9019 20.1549 18.9157 20.0494 18.9592 19.9714C22.6071 13.4078 26.2545 6.84395 29.8959 0.276442C30.0097 0.071124 30.1347 -0.00119848 30.3694 1.49849e-05C32.2815 0.0102081 34.1937 0.00559692 36.1059 0.00559692C36.1998 0.00559692 36.2937 0.00559692 36.4411 0.00559692C30.6259 10.0147 24.834 19.9826 19.0138 30Z" fill="white"/>
</svg>

