<svg xmlns="http://www.w3.org/2000/svg" width="261" height="30" viewBox="0 0 261 30"><path fill="#FFF" fill-rule="evenodd" d="M53.975 15.25c0 3.125-1.7 4.7-5.75 4.7h-2.85V25h-3.75V8.35h6.8c4.05 0 5.55 1.6 5.55 4.725v2.175zm-3.75-.375v-1.45c0-1.2-.425-1.75-2-1.75h-2.85V16.7h2.85c1.65 0 2-.625 2-1.825zm15.7-6.525l5.1 16.65h-3.9l-.9-3.25H60.65l-.9 3.25h-3.9l5.075-16.65h5zm-2.5 3.3L61.5 18.625h3.825l-1.9-6.975zm21.95 12.8c-1.825.525-3.825.8-5.75.8-4.05 0-6.1-2.075-6.1-5.1V13.2c0-3.075 2.05-5.1 6.1-5.1 1.925 0 3.9.25 5.325.525L84.5 11.9c-1.45-.225-3.675-.4-4.875-.4-1.875 0-2.35.975-2.35 2.275V19.5c0 1.3.475 2.375 2.35 2.375.75 0 1.25-.025 2.225-.15v-5.1h3.525v7.825zm14.6.55H89.5V8.35h10.475v3.325H93.25v3.05h6.2v3.325h-6.2v3.625h6.725V25zm17-16.65l-4.7 16.65h-5.35l-4.7-16.65h3.85L109.6 21.6l3.525-13.25h3.85zm11.325 0L133.4 25h-3.9l-.9-3.25h-5.575l-.9 3.25h-3.9L123.3 8.35h5zm-2.5 3.3l-1.925 6.975h3.825l-1.9-6.975zm17 11.2l-2.9-7.1-.25 9.25h-3.625l.7-16.65h3.75l4 10.6 4-10.6h3.75l.7 16.65H149.3l-.25-9.25-2.9 7.1h-3.35zm26.475-7.6c0 3.125-1.7 4.7-5.75 4.7h-2.85V25h-3.75V8.35h6.8c4.05 0 5.55 1.6 5.55 4.725v2.175zm-3.75-.375v-1.45c0-1.2-.425-1.75-2-1.75h-2.85V16.7h2.85c1.65 0 2-.625 2-1.825zm24.225 5.45c0 3.3-1.075 4.925-6.1 4.925-1.925 0-3.95-.425-5.375-1.075l.625-2.9c1.525.475 3.075.8 4.8.8 1.925 0 2.3-.375 2.3-1.775 0-1.5-.075-1.675-2.8-2.275-4.025-.875-4.625-1.675-4.625-5.275 0-3.325 1.175-4.65 5.75-4.65 1.45 0 3.2.15 5.05.55L189 11.8c-1.9-.325-3.125-.475-4.625-.475-1.675 0-2.05.3-2.05 1.525 0 1.6.075 1.625 2.7 2.25 4.5 1.075 4.725 1.95 4.725 5.225zm15-8.65h-4.475V25h-3.75V11.675h-4.475V8.35h12.7v3.325zm11.6-3.325h3.75v11.8c0 2.525-1.575 5.1-6.275 5.1s-6.275-2.575-6.275-5.1V8.35h3.75V19.8c0 1.35.65 2.125 2.525 2.125s2.525-.775 2.525-2.125V8.35zm19.95 12.325c0 2.225-1.525 4.325-5.625 4.325h-6.45V8.35h6.45c4.1 0 5.625 2.075 5.625 4.325v8zm-3.75-1.025V13.7c0-1.3-.45-2.025-2.325-2.025h-2.25v10h2.25c1.875 0 2.325-.725 2.325-2.025zm11.5 5.35h-3.75V8.35h3.75V25zm16.9-11.8v6.95c0 2.525-1.75 5.1-6.45 5.1s-6.45-2.575-6.45-5.1V13.2c0-2.525 1.75-5.1 6.45-5.1s6.45 2.575 6.45 5.1zm-3.75 6.625c0 1.3-.825 2.1-2.7 2.1-1.875 0-2.7-.8-2.7-2.1v-6.3c0-1.3.825-2.1 2.7-2.1 1.875 0 2.7.8 2.7 2.1v6.3zM19.014 30L0 .028h28.091l-9.454 16.844c-.146-.094-.197-.246-.28-.37-.919-1.38-1.83-2.766-2.757-4.141-.122-.182-.118-.303-.009-.485 1.487-2.477 2.964-4.96 4.444-7.44.039-.066.075-.133.127-.225H8.786l10 15.98c.116-.036.13-.142.173-.22A22218.43 22218.43 0 0 0 29.896.276c.114-.205.239-.277.473-.276 1.913.01 3.825.006 5.737.006h.335L19.014 30z"/></svg>