<svg xmlns="http://www.w3.org/2000/svg" width="57" height="50" viewBox="0 0 57 50"><path fill="#8739E5" fill-rule="evenodd" d="M12.195 6.098a1.22 1.22 0 1 1 2.44 0 1.22 1.22 0 0 1-2.44 0zm-3.658 0a1.22 1.22 0 1 1 2.44 0 1.22 1.22 0 0 1-2.44 0zm-2.44 1.22a1.22 1.22 0 1 1 .001-2.44 1.22 1.22 0 0 1 0 2.44zM46.342 21.95a1.22 1.22 0 0 1 0-2.439 1.22 1.22 0 0 1 0 2.44zm0-4.878a3.663 3.663 0 0 0-3.658 3.659c0 .572.143 1.106.38 1.588-.047.042-.1.069-.136.119l-6.392 8.523-5.11-6.133a1.219 1.219 0 0 0-1.952.104l-6.49 9.739-5.048-5.046a1.217 1.217 0 0 0-1.787.07L8.83 38.231a1.218 1.218 0 1 0 1.852 1.585l6.46-7.535 5.167 5.166a1.22 1.22 0 0 0 1.876-.186l6.411-9.617 5.053 6.064a1.22 1.22 0 0 0 1.912-.05l7.223-9.63a3.62 3.62 0 0 0 1.557.361A3.663 3.663 0 0 0 50 20.732a3.663 3.663 0 0 0-3.659-3.659zm7.318 29.27c0 .668-.552 1.218-1.22 1.218H3.659c-.675 0-1.22-.544-1.22-1.217V12.195h51.22v34.149zM2.439 3.657c0-.667.551-1.217 1.22-1.217h48.78c.674 0 1.22.544 1.22 1.217v6.1H2.439v-6.1zm50-3.656H3.658A3.557 3.557 0 0 0 2.44.226C1.026.73 0 2.067 0 3.656v42.688A3.656 3.656 0 0 0 3.659 50h48.78a3.664 3.664 0 0 0 3.659-3.656V3.656A3.657 3.657 0 0 0 52.439 0z"/></svg>