<svg width="220" height="18" viewBox="0 0 220 18" fill="none" xmlns="http://www.w3.org/2000/svg"><path d="M12.975 7.25V5.075c0-3.125-1.5-4.725-5.55-4.725h-6.8V17h3.75v-5.05h2.85c4.05 0 5.75-1.575 5.75-4.7zm-3.75-.375c0 1.2-.35 1.825-2 1.825h-2.85V3.675h2.85c1.575 0 2 .55 2 1.75v1.45zM24.925.35h-5L14.85 17h3.9l.9-3.25h5.575l.9 3.25h3.9L24.925.35zm-2.5 3.3l1.9 6.975H20.5l1.925-6.975zm21.948 12.8V8.625h-3.525v5.1c-.975.125-1.475.15-2.225.15-1.875 0-2.35-1.075-2.35-2.375V5.775c0-1.3.475-2.275 2.35-2.275 1.2 0 3.425.175 4.875.4l.45-3.275C42.523.35 40.548.1 38.623.1c-4.05 0-6.1 2.025-6.1 5.1v6.95c0 3.025 2.05 5.1 6.1 5.1 1.925 0 3.925-.275 5.75-.8zm14.6.55v-3.325h-6.725V10.05h6.2V6.725h-6.2v-3.05h6.725V.35H48.498V17h10.475zM75.978.35h-3.85L68.602 13.6 65.078.35h-3.85l4.7 16.65h5.35l4.7-16.65zm11.32 0h-5L77.225 17h3.9l.9-3.25H87.6l.9 3.25h3.9L87.299.35zm-2.5 3.3l1.9 6.975h-3.824l1.925-6.975zm16.999 11.2h3.35l2.9-7.1.25 9.25h3.625l-.7-16.65h-3.75l-4 10.6-4-10.6h-3.75l-.7 16.65h3.625l.25-9.25 2.9 7.1zm26.479-7.6V5.075c0-3.125-1.5-4.725-5.55-4.725h-6.8V17h3.75v-5.05h2.85c4.05 0 5.75-1.575 5.75-4.7zm-3.75-.375c0 1.2-.35 1.825-2 1.825h-2.85V3.675h2.85c1.575 0 2 .55 2 1.75v1.45z" fill="#fff"/><path d="M148.749 12.325c0-3.275-.225-4.15-4.725-5.225-2.625-.625-2.7-.65-2.7-2.25 0-1.225.375-1.525 2.05-1.525 1.5 0 2.725.15 4.625.475l.375-3.15c-1.85-.4-3.6-.55-5.05-.55-4.575 0-5.75 1.325-5.75 4.65 0 3.6.6 4.4 4.625 5.275 2.725.6 2.8.775 2.8 2.275 0 1.4-.375 1.775-2.3 1.775-1.725 0-3.275-.325-4.8-.8l-.625 2.9c1.425.65 3.45 1.075 5.375 1.075 5.025 0 6.1-1.625 6.1-4.925zm14.999-8.65V.35h-12.7v3.325h4.475V17h3.75V3.675h4.475zM175.354.35V11.8c0 1.35-.65 2.125-2.525 2.125s-2.525-.775-2.525-2.125V.35h-3.75v11.8c0 2.525 1.575 5.1 6.275 5.1s6.275-2.575 6.275-5.1V.35h-3.75zm19.951 12.325v-8c0-2.25-1.525-4.325-5.625-4.325h-6.45V17h6.45c4.1 0 5.625-2.1 5.625-4.325zm-3.75-1.025c0 1.3-.45 2.025-2.325 2.025h-2.25v-10h2.25c1.875 0 2.325.725 2.325 2.025v5.95zM203.047 17V.35h-3.75V17h3.75zm16.901-11.8c0-2.525-1.75-5.1-6.45-5.1s-6.45 2.575-6.45 5.1v6.95c0 2.525 1.75 5.1 6.45 5.1s6.45-2.575 6.45-5.1V5.2zm-3.75 6.625c0 1.3-.825 2.1-2.7 2.1-1.875 0-2.7-.8-2.7-2.1v-6.3c0-1.3.825-2.1 2.7-2.1 1.875 0 2.7.8 2.7 2.1v6.3z" fill="#CEDAFD"/></svg>