<svg xmlns="http://www.w3.org/2000/svg" width="60" height="50" viewBox="0 0 60 50"><path fill="#8739E5" fill-rule="evenodd" d="M12.5 6.25a1.25 1.25 0 1 1 2.5 0 1.25 1.25 0 0 1-2.5 0zm-3.75 0a1.25 1.25 0 1 1 2.5 0 1.25 1.25 0 0 1-2.5 0zM6.25 7.5a1.25 1.25 0 1 1 0-2.5 1.25 1.25 0 0 1 0 2.5zM2.5 3.757c0-.69.567-1.257 1.248-1.257h40.004c.692 0 1.248.559 1.248 1.257V10H2.5V3.758zM45 45v1.242a1.26 1.26 0 0 1-1.248 1.258H3.747A1.248 1.248 0 0 1 2.5 46.242V12.5H45V15h2.5V3.758A3.75 3.75 0 0 0 43.752 0H3.748c-.44 0-.856.09-1.248.233C1.052.75 0 2.126 0 3.756v42.485A3.75 3.75 0 0 0 3.748 50h40.004c1.617 0 2.994-1.046 3.515-2.5a3.7 3.7 0 0 0 .233-1.258V45H45zM23.75 18.75H30v2.5h-7.5v-2.5h1.25zm-5.893 2.5H6.25v-2.5h12.5v2.5h-.893zm-.149 7.5H6.25v-2.5H25v2.5h-7.292zm-11.458 5h7.5v2.5h-7.5v-2.5zm43.384-7.134c.489.489.489 1.28 0 1.768L45 33.013l-1.624 1.62a1.25 1.25 0 0 1-1.767 0l-3.743-3.737a1.25 1.25 0 1 1 1.767-1.769l2.86 2.857.007-.008L45 29.48l2.866-2.863a1.249 1.249 0 0 1 1.768 0zm2.687 8.531a10.02 10.02 0 0 1-7.142 4.74c-.468.067-.942.113-1.429.113-.487 0-.961-.046-1.429-.113-4.844-.694-8.571-4.853-8.571-9.887a9.979 9.979 0 0 1 5.714-9.016 10.01 10.01 0 0 1 2.857-.87c.468-.067.942-.114 1.429-.114.487 0 .961.047 1.429.114a10.012 10.012 0 0 1 7.142 4.737A9.93 9.93 0 0 1 53.75 30a9.928 9.928 0 0 1-1.429 5.147zm1.642 2.049l4.724 4.723a1.25 1.25 0 1 1-1.768 1.768l-4.6-4.6a12.449 12.449 0 0 1-9.958 3.333C36.111 41.725 31.25 36.434 31.25 30c0-.956.12-1.882.322-2.778a12.51 12.51 0 0 1 6.46-8.333c.496-.257 1.018-.47 1.551-.66a12.47 12.47 0 0 1 4.167-.729c.47 0 .932.03 1.389.082a12.417 12.417 0 0 1 6.944 3.115A12.452 12.452 0 0 1 56.25 30c0 2.682-.847 5.163-2.287 7.196z"/></svg>