<svg xmlns="http://www.w3.org/2000/svg" width="50" height="50" viewBox="0 0 50 50"><path fill="#8739E5" fill-rule="evenodd" d="M41.592 45.903l4.379-4.378 1.314 5.691-5.693-1.313zm-14.9-14.306l-1.657-1.658-4.973-4.973-1.657-1.657L8.145 13.05l4.972-4.973 10.26 10.26 1.658 1.656 4.972 4.973 1.657 1.658L44.61 39.57l-4.972 4.973-12.946-12.946zM10.264 44.709l-3.928 1.683-2.728-2.728 1.684-3.93 13.111-13.11 4.973 4.973-13.112 13.112zM3.166 8.07a1.173 1.173 0 0 1 .007-1.651l3.314-3.315c.46-.46 1.197-.46 1.652-.007L11.46 6.42l-4.973 4.973L3.166 8.07zm35.786-1.993l4.973 4.971L31.664 23.31l-4.972-4.974 12.26-12.258zm6.217-3.732c.004-.003-.006-.003.004.007l2.476 2.476c.007.007.007.003.007.004L44.34 8.148l-2.485-2.486 3.315-3.317zm2.757 37.225L33.322 24.966l9.742-9.742.913.915a1.17 1.17 0 0 1-.002 1.66l-4.6 4.598a1.173 1.173 0 0 0 1.658 1.658l4.6-4.597a3.518 3.518 0 0 0 .003-4.977l-.914-.914.86-.861 1.657-1.658-1.242-1.242 3.317-3.317c.92-.922.91-2.4-.007-3.32L46.83.694a2.338 2.338 0 0 0-3.318-.005l-3.317 3.316-1.243-1.243-1.658 1.657v.001l-12.26 12.259L9.797 1.44a3.51 3.51 0 0 0-4.966.007L1.515 4.762a3.515 3.515 0 0 0-.007 4.966l3.322 3.321.316.317 1.341 1.342 10.26 10.258L3.314 38.398.829 44.2l1.657 1.657L0 48.343 1.657 50l2.486-2.486 1.659 1.657 5.801-2.486 13.432-13.431L37.98 46.2l1.657 1.658 8.49 1.96c1.252.287 2.05-.498 1.757-1.759l-1.958-8.489z"/></svg>