<svg width="50" height="50" viewBox="0 0 50 50" fill="none" xmlns="http://www.w3.org/2000/svg"><path fill-rule="evenodd" clip-rule="evenodd" d="M41.592 45.903l4.379-4.378 1.314 5.692-5.693-1.314zm-14.9-14.305l-1.657-1.658-4.973-4.973-1.658-1.657L8.146 13.051l4.971-4.973 10.26 10.259 1.658 1.657 4.971 4.973 1.658 1.658L44.61 39.57l-4.972 4.973-12.946-12.946zm-16.428 13.11l-3.928 1.684-2.728-2.729 1.684-3.93 13.111-13.11 4.973 4.973-13.112 13.113zM3.166 8.07a1.173 1.173 0 0 1 .007-1.652l3.314-3.314c.46-.46 1.197-.46 1.652-.007l3.321 3.321-4.973 4.973L3.166 8.07zm35.786-1.994l4.973 4.972-12.261 12.26-4.972-4.974 12.26-12.258zm6.217-3.73c.004-.003-.005-.003.004.006l2.476 2.477c.007.007.007.002.007.003L44.34 8.148l-2.486-2.486 3.315-3.317zm2.757 37.224L33.322 24.966l9.742-9.742.913.915a1.17 1.17 0 0 1-.002 1.66l-4.6 4.598a1.173 1.173 0 0 0 1.658 1.658l4.6-4.597a3.518 3.518 0 0 0 .003-4.977l-.914-.914.86-.861 1.657-1.658-1.242-1.242 3.317-3.317c.92-.922.91-2.4-.007-3.32L46.83.694a2.338 2.338 0 0 0-3.318-.005l-3.317 3.316-1.243-1.243-1.658 1.657v.001l-12.26 12.259L9.797 1.44a3.51 3.51 0 0 0-4.966.007L1.515 4.762a3.515 3.515 0 0 0-.007 4.965L4.83 13.05l.316.317 1.341 1.341 10.26 10.26L3.314 38.397.829 44.2l1.657 1.657L0 48.343 1.657 50l2.486-2.486 1.659 1.657 5.801-2.486 13.432-13.431L37.98 46.2l1.657 1.657 8.49 1.96c1.252.288 2.05-.497 1.757-1.758l-1.958-8.489z" fill="#8739E5"/></svg>